####
#
# OBJ File Generated by Meshlab
#
####
# Object stone_2.obj
#
# Vertices: 8
# Faces: 12
#
####
mtllib ./stone_2.obj.mtl

vn -1.078910 -1.020975 -0.567491
v -1.829888 -1.830876 -0.004635 0.752941 0.752941 0.752941
vn -1.676998 -1.891491 3.253434
v -1.124651 -1.309742 1.284056 0.752941 0.752941 0.752941
vn -0.900413 0.944521 -0.426221
v -1.829888 1.851095 -0.004635 0.752941 0.752941 0.752941
vn -1.855494 1.641128 3.718776
v -1.124651 0.961755 1.284056 0.752941 0.752941 0.752941
vn 1.078910 -1.020975 -0.567491
v 1.852083 -1.830876 -0.004635 0.752941 0.752941 0.752941
vn 1.676998 -1.891491 3.253434
v 1.146846 -1.309742 1.284056 0.752941 0.752941 0.752941
vn 0.900413 0.944521 -0.426221
v 1.852083 1.851095 -0.004635 0.752941 0.752941 0.752941
vn 1.855494 1.641128 3.718776
v 1.146846 0.961755 1.284056 0.752941 0.752941 0.752941
# 8 vertices, 0 vertices normals


usemtl material_0
f 1//1 4//4 3//3
f 4//4 7//7 3//3
f 8//8 5//5 7//7
f 6//6 1//1 5//5
f 7//7 1//1 3//3
f 4//4 6//6 8//8
f 1//1 2//2 4//4
f 4//4 8//8 7//7
f 8//8 6//6 5//5
f 6//6 2//2 1//1
f 7//7 5//5 1//1
f 4//4 2//2 6//6
# 12 faces, 0 coords texture

# End of File